<?xml version="1.0" standalone="no"?>
<!DOCTYPE svg PUBLIC "-//W3C//DTD SVG 20010904//EN"
 "http://www.w3.org/TR/2001/REC-SVG-20010904/DTD/svg10.dtd">
<svg version="1.0" xmlns="http://www.w3.org/2000/svg"
 width="500.000000pt" height="500.000000pt" viewBox="0 0 500.000000 500.000000"
 preserveAspectRatio="xMidYMid meet">
<metadata>
Created by potrace 1.14, written by Peter Selinger 2001-2017
</metadata>
<g transform="translate(0.000000,500.000000) scale(0.100000,-0.100000)"
fill="#000000" stroke="none">
<path d="M229 3390 l-24 -5 0 -248 c0 -176 3 -250 12 -255 6 -4 318 -7 692 -6
375 1 681 0 681 -2 0 -1 -6 -9 -13 -16 -7 -7 -77 -89 -157 -183 -80 -93 -152
-177 -160 -185 -8 -9 -37 -42 -65 -75 -27 -32 -85 -99 -129 -149 -43 -50 -88
-102 -100 -116 -304 -353 -728 -843 -750 -867 -70 -78 -101 -71 313 -71 l369
0 24 26 c12 15 77 90 143 167 65 77 122 142 125 145 3 3 30 34 60 70 30 35 62
72 70 80 8 9 38 43 65 75 58 67 78 90 108 125 12 14 47 55 77 90 30 36 60 70
65 76 38 43 88 101 220 254 82 96 153 177 156 180 3 3 78 89 166 191 l160 187
0 252 c1 197 -2 253 -12 256 -17 7 -2064 10 -2096 4z"/>
<path d="M2684 3392 c-21 -3 -21 -6 -21 -258 0 -224 2 -254 16 -255 9 0 384
-1 834 -1 l817 -1 0 -159 0 -158 -834 0 -833 0 1 -672 1 -673 1088 -2 c1005
-1 1087 0 1088 15 3 42 5 478 2 487 -2 7 -281 10 -833 10 -733 0 -830 2 -831
15 -1 18 -1 281 0 295 1 7 280 10 824 9 452 0 827 3 832 7 12 8 14 1323 3
1335 -7 6 -2109 12 -2154 6z"/>
</g>
</svg>
